<?xml version="1.0" standalone="no"?>
<!DOCTYPE svg PUBLIC "-//W3C//DTD SVG 20010904//EN"
 "http://www.w3.org/TR/2001/REC-SVG-20010904/DTD/svg10.dtd">
<svg version="1.0" xmlns="http://www.w3.org/2000/svg"
 width="280.000000pt" height="280.000000pt" viewBox="0 0 280.000000 280.000000"
 preserveAspectRatio="xMidYMid meet">

<g transform="translate(0.000000,280.000000) scale(0.100000,-0.100000)"
fill="#000000" stroke="none">
<path d="M1880 2709 c-86 -35 -134 -153 -96 -242 13 -32 78 -97 96 -97 6 0 10
-99 10 -258 l0 -257 -120 -120 -120 -120 0 -322 0 -323 50 0 50 0 0 299 0 299
115 120 115 120 0 275 0 275 25 6 c13 3 41 21 61 38 129 114 52 320 -118 317
-24 0 -54 -5 -68 -10z m129 -95 c57 -48 47 -135 -20 -169 -40 -21 -82 -12
-114 27 -42 50 -32 123 23 152 40 22 77 19 111 -10z"/>
<path d="M806 2616 c-103 -62 -117 -213 -27 -289 18 -15 43 -30 57 -33 l24 -6
0 -275 0 -275 120 -115 120 -115 0 -269 0 -269 45 0 45 0 0 293 0 292 -115
115 -115 115 0 251 0 251 41 27 c105 70 104 230 -3 299 -56 36 -135 38 -192 3z
m134 -61 c69 -36 81 -106 26 -161 -38 -38 -70 -43 -116 -19 -37 19 -50 43 -50
92 1 44 15 66 56 88 36 19 48 19 84 0z"/>
<path d="M328 2250 c-72 -21 -128 -99 -128 -175 0 -96 80 -175 177 -175 28 0
64 5 78 12 24 11 31 6 145 -108 l119 -119 1 -357 0 -358 50 0 50 0 0 373 0
372 -135 137 -135 137 6 54 c17 144 -97 247 -228 207z m103 -85 c56 -29 66
-106 20 -157 -24 -27 -36 -33 -71 -33 -35 0 -47 6 -71 33 -79 89 16 211 122
157z"/>
<path d="M1335 2237 c-123 -70 -124 -246 -2 -312 l37 -20 0 -468 0 -468 53 3
52 3 3 468 c2 400 4 467 17 467 28 0 92 73 105 119 42 157 -124 288 -265 208z
m144 -73 c29 -21 52 -74 44 -105 -8 -32 -49 -76 -79 -83 -34 -9 -92 20 -109
55 -24 45 -19 77 19 115 39 39 85 45 125 18z"/>
<path d="M2416 2179 c-52 -12 -93 -43 -116 -89 -22 -44 -26 -77 -16 -135 l7
-40 -131 -130 -130 -130 0 -343 0 -343 48 3 47 3 3 315 2 316 120 119 c114
114 120 118 145 107 57 -26 153 -5 196 44 65 74 65 179 1 247 -49 52 -108 71
-176 56z m78 -79 c32 -12 66 -65 66 -102 0 -43 -47 -88 -97 -95 -37 -5 -45 -2
-73 25 -48 48 -39 129 18 165 31 19 51 21 86 7z"/>
<path d="M360 1607 c-47 -16 -80 -68 -80 -125 0 -40 5 -50 40 -83 l40 -38 0
-149 0 -148 38 -37 c21 -20 41 -37 45 -37 4 0 7 83 7 185 l0 186 40 38 c36 34
40 42 40 89 0 62 -32 106 -88 122 -44 12 -38 12 -82 -3z m95 -72 c39 -38 28
-93 -23 -114 -33 -14 -65 -4 -89 28 -31 40 9 111 62 111 14 0 37 -11 50 -25z"/>
<path d="M2400 1610 c-54 -13 -90 -60 -90 -118 0 -53 27 -107 59 -117 20 -6
21 -14 21 -151 0 -158 0 -159 58 -124 l32 20 0 120 0 121 40 38 c35 33 40 44
40 82 0 94 -69 149 -160 129z m81 -71 c47 -47 -1 -139 -65 -123 -27 6 -56 48
-56 79 0 25 46 65 75 65 14 0 34 -9 46 -21z"/>
<path d="M202 638 l3 -43 102 -5 c116 -6 143 -19 143 -70 0 -51 -27 -64 -143
-70 l-102 -5 0 -140 0 -140 35 0 35 0 5 95 5 95 80 5 c92 7 121 21 153 79 30
52 29 113 -3 166 -36 62 -71 75 -205 75 l-111 0 3 -42z"/>
<path d="M660 640 l0 -40 185 0 185 0 0 40 0 40 -185 0 -185 0 0 -40z"/>
<path d="M1167 673 c-10 -10 -8 -102 3 -122 8 -16 23 -19 73 -12 4 1 7 12 7
26 0 24 3 25 55 25 46 0 60 -4 80 -25 30 -29 32 -55 6 -86 -17 -22 -29 -24
-123 -29 l-103 -5 0 -140 0 -140 40 0 40 0 5 95 5 95 40 3 c22 1 45 -1 50 -5
6 -5 29 -48 51 -98 l41 -90 43 -3 c49 -4 50 -16 -12 124 l-41 93 30 35 c68 77
45 204 -47 251 -30 15 -229 22 -243 8z"/>
<path d="M1740 641 c0 -37 2 -40 33 -43 l32 -3 3 -212 c1 -117 6 -213 10 -214
12 -2 56 -2 75 0 16 1 17 18 17 204 0 145 3 206 12 215 7 7 42 12 85 12 l73 0
0 40 0 40 -170 0 -170 0 0 -39z"/>
<path d="M2210 640 c0 -35 3 -40 23 -40 45 0 47 -12 47 -231 0 -192 1 -207 18
-204 9 2 32 4 50 4 l32 1 0 209 c0 239 -8 221 101 221 l69 0 0 40 0 40 -170 0
-170 0 0 -40z"/>
<path d="M662 348 l3 -183 180 0 180 0 3 43 3 42 -140 0 -141 0 0 60 0 60 111
0 110 0 -3 38 -3 37 -107 3 -107 3 -3 37 c-3 36 -4 37 -46 40 l-42 3 2 -183z"/>
<path d="M1617 234 c-15 -15 -7 -63 13 -74 33 -17 62 4 58 43 -3 27 -7 32 -33
35 -17 2 -34 0 -38 -4z"/>
<path d="M2061 226 c-8 -9 -11 -26 -7 -40 13 -53 79 -38 74 17 -2 26 -8 33
-29 35 -14 2 -31 -4 -38 -12z"/>
<path d="M2560 225 c-15 -18 -6 -61 16 -69 19 -7 50 8 58 29 16 42 -45 75 -74
40z"/>
</g>
</svg>
