<?xml version="1.0" encoding="UTF-8" standalone="no"?>
<!-- Created with Inkscape (http://www.inkscape.org/) -->

<svg
   version="1.1"
   id="svg1"
   width="270.25336"
   height="328.65793"
   viewBox="0 0 270.25336 328.65793"
   xmlns="http://www.w3.org/2000/svg"
   xmlns:svg="http://www.w3.org/2000/svg">
  <defs
     id="defs1">
    <clipPath
       clipPathUnits="userSpaceOnUse"
       id="clipPath4">
      <path
         d="m 267.54382,0 h 468.75 v 468.75 h -468.75 z"
         transform="matrix(10.9489,0,0,-10.9489,-2929.3104,5120.0007)"
         clip-rule="evenodd"
         id="path4" />
    </clipPath>
    <clipPath
       clipPathUnits="userSpaceOnUse"
       id="clipPath6">
      <path
         d="m 267.54382,0 h 468.75 v 468.75 h -468.75 z"
         transform="matrix(10.9489,0,0,-10.9489,-2929.3104,5120.0007)"
         clip-rule="evenodd"
         id="path6" />
    </clipPath>
    <clipPath
       clipPathUnits="userSpaceOnUse"
       id="clipPath8">
      <path
         d="m 267.54382,0 h 468.75 v 468.75 h -468.75 z"
         transform="matrix(10.9489,0,0,-10.9489,-2929.3104,5120.0007)"
         clip-rule="evenodd"
         id="path8" />
    </clipPath>
    <clipPath
       clipPathUnits="userSpaceOnUse"
       id="clipPath10">
      <path
         d="m 267.54382,0 h 468.75 v 468.75 h -468.75 z"
         transform="matrix(10.9489,0,0,-10.9489,-2929.3104,5120.0007)"
         clip-rule="evenodd"
         id="path10" />
    </clipPath>
    <clipPath
       clipPathUnits="userSpaceOnUse"
       id="clipPath12">
      <path
         d="m 267.54382,0 h 468.75 v 468.75 h -468.75 z"
         transform="matrix(10.9489,0,0,-10.9489,-2929.3104,5120.0007)"
         clip-rule="evenodd"
         id="path12" />
    </clipPath>
    <clipPath
       clipPathUnits="userSpaceOnUse"
       id="clipPath14">
      <path
         d="m 0,467.6561 h 950 v 606.25 H 0 Z"
         transform="matrix(5.6769695,0,0,-5.6769695,-0.17485901,6094.8691)"
         clip-rule="evenodd"
         id="path14" />
    </clipPath>
    <clipPath
       clipPathUnits="userSpaceOnUse"
       id="clipPath16">
      <path
         d="m 290.23141,555.93402 h 421.87503 v 393.75 H 290.23141 Z"
         transform="matrix(16.008884,0,0,-16.008884,-4646.281,15179.907)"
         clip-rule="evenodd"
         id="path16" />
    </clipPath>
    <clipPath
       clipPathUnits="userSpaceOnUse"
       id="clipPath18">
      <path
         d="m 290.23141,555.93402 h 421.87503 v 393.75 H 290.23141 Z"
         transform="matrix(16.008884,0,0,-16.008884,-4646.281,15179.907)"
         clip-rule="evenodd"
         id="path18" />
    </clipPath>
  </defs>
  <g
     id="g1"
     transform="translate(-20.020533,-10.727355)">
    <path
       id="path3"
       d="m 1693,5110 c -81,-12 -177,-62 -238,-124 -164,-169 -164,-426 0,-591 29,-29 76,-63 104,-76 l 50,-24 1,-1185 V 1925 l -186,-185 c -102,-102 -192,-197 -200,-212 -11,-22 -14,-91 -14,-362 V 830 l -51,-26 C 1018,733 929,590 928,435 927,120 1248,-86 1533,48 c 166,77 266,266 237,449 -21,127 -112,251 -225,306 l -55,28 v 286 287 l 194,195 c 107,108 200,209 205,224 8,19 11,415 11,1245 v 1217 l 51,23 c 69,32 150,116 190,198 32,65 34,74 34,174 -1,86 -5,116 -24,163 -72,183 -264,294 -458,267 z m 138,-303 c 90,-60 88,-181 -4,-237 -92,-56 -210,12 -210,121 0,108 125,176 214,116 z M 1427,540 c 70,-42 84,-151 28,-210 -115,-120 -299,8 -228,157 33,69 131,96 200,53 z"
       style="fill:#ffffff;fill-opacity:1;fill-rule:nonzero;stroke:none"
       transform="matrix(0.02922668,0,0,-0.02922668,85.614019,160.20061)"
       clip-path="url(#clipPath4)" />
    <path
       id="path5"
       d="m 3325,5113 c -152,-17 -282,-110 -348,-251 -30,-62 -32,-75 -32,-172 0,-97 2,-110 32,-172 40,-85 106,-156 183,-197 l 60,-32 V 3066 1844 l 29,-45 c 16,-24 108,-123 205,-219 l 176,-175 V 1123 840 l -52,-26 C 3282,664 3266,248 3550,75 c 301,-183 683,67 638,417 -15,118 -107,244 -221,303 l -57,30 v 333 c 0,270 -3,338 -14,360 -8,15 -98,110 -200,212 l -186,185 v 1190 l 1,1190 50,23 c 27,13 71,45 97,70 226,220 145,591 -152,700 -53,20 -130,30 -181,25 z m 105,-301 c 66,-33 92,-121 56,-190 -35,-67 -127,-92 -193,-52 -155,94 -26,324 137,242 z M 3846,541 c 105,-64 71,-234 -51,-257 -111,-20 -203,104 -151,205 35,67 135,93 202,52 z"
       style="fill:#ffffff;fill-opacity:1;fill-rule:nonzero;stroke:none"
       transform="matrix(0.02922668,0,0,-0.02922668,85.614019,160.20061)"
       clip-path="url(#clipPath6)" />
    <path
       id="path7"
       d="M 425,3883 C 324,3873 230,3827 159,3753 76,3666 40,3578 40,3460 c 0,-213 151,-387 363,-420 73,-11 112,-8 191,17 l 48,15 89,-88 89,-89 V 2748 2601 L 569,2343 C 431,2201 311,2074 302,2060 c -14,-20 -18,-60 -20,-246 l -4,-221 -49,-23 C 202,1557 156,1523 127,1494 -33,1335 -40,1082 112,915 275,736 557,728 724,898 c 93,95 131,195 124,328 -4,70 -10,94 -41,157 -41,83 -111,155 -190,197 l -47,25 v 165 164 l 264,266 c 218,219 266,272 275,305 14,53 14,428 0,479 -8,31 -41,70 -136,167 l -125,128 18,48 c 23,59 25,177 5,248 -57,194 -249,327 -446,308 z m 121,-298 c 114,-75 61,-258 -75,-258 -149,0 -194,197 -61,266 40,21 97,18 136,-8 z M 484,1326 c 93,-39 112,-158 36,-231 -40,-38 -120,-46 -167,-16 -89,56 -85,193 7,242 41,23 79,24 124,5 z"
       style="fill:#ffffff;fill-opacity:1;fill-rule:nonzero;stroke:none"
       transform="matrix(0.02922668,0,0,-0.02922668,85.614019,160.20061)"
       clip-path="url(#clipPath8)" />
    <path
       id="path9"
       d="m 4585,3878 c -154,-21 -296,-145 -341,-297 -21,-74 -21,-183 2,-254 l 18,-57 -121,-123 c -93,-94 -123,-131 -132,-162 -14,-52 -14,-427 0,-480 9,-33 57,-86 275,-305 l 264,-266 v -166 -166 l -31,-13 c -97,-40 -196,-151 -229,-256 -111,-360 262,-675 598,-504 156,80 255,274 224,441 -23,127 -112,249 -220,304 l -52,26 v 198 c 0,110 -5,215 -11,237 -9,33 -56,85 -275,305 l -264,265 v 145 145 l 90,90 90,89 47,-16 c 73,-25 114,-29 187,-19 349,50 494,475 245,720 -100,98 -223,139 -364,119 z m 141,-293 c 61,-40 82,-130 44,-192 -54,-90 -196,-85 -242,7 -65,128 79,263 198,185 z m 34,-2264 c 92,-49 96,-186 7,-242 -47,-30 -127,-22 -167,16 -120,115 14,305 160,226 z"
       style="fill:#ffffff;fill-opacity:1;fill-rule:nonzero;stroke:none"
       transform="matrix(0.02922668,0,0,-0.02922668,85.614019,160.20061)"
       clip-path="url(#clipPath10)" />
    <path
       id="path11"
       d="m 2390,3161 c -73,-23 -106,-42 -159,-87 -143,-124 -185,-337 -100,-506 38,-76 117,-155 187,-187 l 52,-24 V 1593 830 l -46,-22 c -71,-33 -159,-120 -194,-191 -175,-361 201,-739 565,-568 163,76 262,265 234,444 -20,128 -114,261 -226,318 l -48,25 -3,757 -2,756 45,20 c 66,29 157,120 193,194 68,137 60,293 -20,418 -104,162 -303,237 -478,180 z m 196,-286 c 117,-76 63,-259 -76,-259 -149,0 -193,198 -60,267 40,21 97,18 136,-8 z m 1,-2335 c 64,-38 83,-128 40,-191 -98,-147 -311,-27 -243,136 29,69 133,98 203,55 z"
       style="fill:#ffffff;fill-opacity:1;fill-rule:nonzero;stroke:none"
       transform="matrix(0.02922668,0,0,-0.02922668,85.614019,160.20061)"
       clip-path="url(#clipPath12)" />
    <path
       id="path13"
       d="m 1148,3204 c -60,-32 -58,-10 -58,-753 0,-635 1,-687 20,-798 61,-359 225,-671 486,-924 82,-79 204,-176 264,-210 22,-12 -71,-15 -707,-19 l -733,-5 -32,-33 c -28,-28 -33,-39 -33,-82 0,-43 5,-54 33,-82 l 32,-33 2316,-3 c 2056,-2 2319,0 2348,13 61,29 84,107 49,166 -36,61 -12,59 -800,60 -559,0 -714,3 -699,12 147,94 347,279 450,417 53,71 148,229 171,283 13,33 19,36 92,52 112,24 247,83 347,149 256,170 409,440 447,787 35,319 -50,497 -276,581 -53,19 -80,22 -225,22 -91,1 -180,-2 -197,-6 l -33,-7 v 175 c 0,191 -5,210 -61,240 -43,22 -3161,21 -3201,-2 z m 3022,-822 c 0,-672 -2,-697 -70,-903 -46,-139 -87,-223 -171,-350 -76,-114 -261,-302 -371,-377 -156,-106 -358,-191 -545,-229 -131,-27 -414,-24 -543,5 -297,66 -511,182 -721,391 -174,174 -275,336 -349,560 -68,206 -70,231 -70,903 v 598 h 1420 1420 z m 645,158 c 78,-39 90,-69 89,-220 -1,-289 -99,-515 -289,-667 -69,-55 -230,-142 -242,-130 -3,4 2,44 12,89 16,71 19,142 22,503 3,231 8,423 12,428 16,16 102,26 221,24 111,-2 130,-5 175,-27 z"
       style="fill:#ffffff;fill-opacity:1;fill-rule:nonzero;stroke:none"
       transform="matrix(0.0563681,0,0,-0.0563681,0.00985647,354.11618)"
       clip-path="url(#clipPath14)" />
    <path
       id="path15"
       d="M 2120,5914 C 1577,5845 1123,5499 792,4905 531,4437 390,3852 388,3236 c -1,-316 22,-549 83,-826 214,-986 807,-1717 1507,-1859 542,-110 1075,115 1485,629 531,664 760,1723 586,2710 -121,688 -441,1303 -861,1655 -218,183 -441,297 -679,345 -98,20 -315,33 -389,24 z m 305,-884 c 61,-94 98,-172 133,-281 54,-169 65,-259 58,-479 -14,-450 -55,-655 -262,-1320 -195,-623 -232,-790 -241,-1095 -6,-193 9,-365 47,-521 10,-43 17,-80 15,-82 -9,-10 -131,172 -170,252 -137,289 -174,624 -114,1041 37,260 87,454 258,1003 166,530 208,706 231,974 16,188 -13,437 -70,602 -11,33 -20,62 -20,65 1,13 94,-97 135,-159 z"
       style="fill:#ffffff;fill-opacity:1;fill-rule:nonzero;stroke:none"
       transform="matrix(0.0199889,0,0,-0.0199889,92.874047,313.98964)"
       clip-path="url(#clipPath16)" />
    <path
       id="path17"
       d="m 4480,5289 c -122,-11 -272,-35 -380,-60 -94,-23 -328,-94 -347,-106 -8,-6 6,-39 45,-108 223,-401 392,-989 418,-1458 9,-164 -12,-158 181,-58 440,228 675,429 862,739 24,40 45,71 47,70 5,-6 -17,-164 -32,-222 -22,-85 -84,-224 -145,-324 -116,-188 -484,-507 -794,-687 -55,-32 -101,-59 -103,-60 -2,-2 -10,-74 -18,-161 -58,-628 -240,-1177 -542,-1633 -90,-137 -246,-325 -338,-410 -37,-33 -60,-61 -52,-61 27,0 242,41 323,61 200,51 457,152 680,268 703,365 1333,1019 1645,1710 360,796 320,1555 -106,2032 -250,278 -580,431 -1009,468 -135,12 -198,12 -335,0 z"
       style="fill:#ffffff;fill-opacity:1;fill-rule:nonzero;stroke:none"
       transform="matrix(0.0199889,0,0,-0.0199889,92.874047,313.98964)"
       clip-path="url(#clipPath18)" />
  </g>
</svg>
