<?xml version="1.0" encoding="utf-8"?>
<!-- Generator: Adobe Illustrator 23.0.0, SVG Export Plug-In . SVG Version: 6.00 Build 0)  -->
<svg version="1.1" id="Capa_1" xmlns="http://www.w3.org/2000/svg" xmlns:xlink="http://www.w3.org/1999/xlink" x="0px" y="0px"
	 viewBox="0 0 1760 2032" style="enable-background:new 0 0 1760 2032;" xml:space="preserve">
<style type="text/css">
	.st0{fill:#2196F3;stroke:#2196F3;stroke-width:30;stroke-miterlimit:10;}
	.st1{fill:#FFFFFF;}
	.st2{fill:none;stroke:#FFFFFF;stroke-width:22.6544;stroke-miterlimit:10;}
	.st3{fill:none;stroke:#FFFFFF;stroke-width:23.5141;stroke-miterlimit:10;}
	.st4{fill:#2196F3;stroke:#2196F3;stroke-width:60;stroke-miterlimit:10;}
	.st5{fill:none;stroke:#FFFFFF;stroke-width:11.8901;stroke-linecap:round;stroke-linejoin:round;stroke-miterlimit:10;}
	.st6{fill:none;stroke:#FFFFFF;stroke-width:25;stroke-miterlimit:10;}
	.st7{fill:#2196F3;}
	.st8{fill:#FFFFFF;stroke:#FFFFFF;stroke-width:11.8901;stroke-linecap:round;stroke-linejoin:round;stroke-miterlimit:10;}
	.st9{fill:#FFFFFF;stroke:#FFFFFF;stroke-width:14.5333;stroke-linecap:round;stroke-linejoin:round;stroke-miterlimit:10;}
	.st10{fill:none;stroke:#65727E;stroke-width:11.8901;stroke-linecap:round;stroke-linejoin:round;stroke-miterlimit:10;}
	.st11{fill:#FFFFFF;stroke:#FFFFFF;stroke-width:14.4;stroke-linecap:round;stroke-linejoin:round;stroke-miterlimit:10;}
	.st12{fill:none;stroke:#FFFFFF;stroke-width:25;stroke-linecap:round;stroke-linejoin:round;stroke-miterlimit:10;}
	.st13{fill:none;stroke:#2196F3;stroke-width:40;stroke-miterlimit:10;}
</style>
<g>
	<polygon class="st0" points="880.7,23.2 21,519.6 21,1512.4 880.7,2008.8 1740.5,1512.4 1740.5,519.6 	"/>
	<g>
		<g>
			<path class="st1" d="M1740.5,1270.5v28c-9.4-6.7-20.3-11-35.1-11c-28.9,0-43.1,16.3-59.6,35.3c-17.8,20.4-38,43.6-77.9,43.6
				c-39.9,0-60.1-23.2-77.9-43.6c-16.5-18.9-30.8-35.3-59.6-35.3c-28.9,0-43.1,16.3-59.6,35.3c-17.8,20.4-38,43.6-77.9,43.6
				c-39.9,0-60.1-23.2-77.9-43.6c-16.3-18.8-30.5-34.9-58.8-35.3v0h-0.5c-28.9,0-43.1,16.3-59.6,35.3c-17.8,20.4-38,43.6-77.9,43.6
				c-39.9,0-60.1-23.2-77.9-43.6c-16.5-18.9-30.8-35.3-59.7-35.3c-28.9,0-43.1,16.3-59.6,35.3c-17.8,20.4-38,43.6-77.9,43.6
				c-39.9,0-60.1-23.2-77.9-43.6c-16.5-18.9-30.8-35.3-59.6-35.3c-28.9,0-43.1,16.3-59.6,35.3c-17.8,20.4-38,43.6-77.9,43.6
				c-0.9,0-1.9,0-2.8,0v0c-39.5-0.2-59.6-23.2-77.3-43.6c-16.5-18.9-30.8-35.3-59.6-35.3s-43.1,16.3-59.6,35.3
				c-17.8,20.4-38,43.6-77.9,43.6c-39.9,0-60.1-23.2-77.9-43.6c-16.5-18.9-30.8-35.3-59.6-35.3c-13.1,0-23.2,3.3-31.8,8.8v-27.2
				c9.1-3.7,19.5-5.8,31.8-5.8c39.9,0,60.1,23.2,77.9,43.6c16.5,18.9,30.8,35.3,59.6,35.3c28.9,0,43.1-16.3,59.7-35.3
				c17.8-20.4,38-43.6,77.9-43.6c1,0,2,0,3,0.1v0c39.4,0.3,59.4,23.3,77.1,43.5c16.5,18.9,30.8,35.3,59.6,35.3
				c28.9,0,43.1-16.3,59.6-35.3c17.8-20.4,38-43.6,77.9-43.6c39.9,0,60.1,23.2,77.9,43.6c16.5,18.9,30.8,35.3,59.6,35.3
				c28.9,0,43.1-16.3,59.6-35.3c17.8-20.4,38-43.6,77.9-43.6c39.9,0,60.1,23.2,77.9,43.6c16.5,18.9,30.8,35.3,59.6,35.3
				s43.1-16.3,59.6-35.3c17.8-20.4,38-43.6,77.9-43.6c39.9,0,60.1,23.2,77.9,43.6c16.4,18.8,30.6,35,59,35.3v0h0.3
				c28.9,0,43.1-16.3,59.6-35.3c17.8-20.4,38-43.6,77.9-43.6c39.9,0,60.1,23.2,77.9,43.6c16.5,18.9,30.8,35.3,59.6,35.3
				c28.9,0,43.1-16.3,59.6-35.3c17.8-20.4,38-43.6,77.9-43.6C1719.2,1263.3,1730.7,1266,1740.5,1270.5z"/>
		</g>
	</g>
	<g>
		<g>
			<path class="st1" d="M1740.5,1387.2v30.4c-11.2-10.4-23.9-17.6-43.1-17.6c-28.9,0-43.1,16.3-59.6,35.3
				c-17.8,20.4-38,43.6-77.9,43.6c-39.9,0-60.1-23.2-77.9-43.6c-16.5-18.9-30.8-35.3-59.6-35.3c-28.9,0-43.1,16.3-59.6,35.3
				c-17.8,20.4-38,43.6-77.9,43.6c-39.9,0-60.1-23.2-77.9-43.6c-16.3-18.8-30.5-34.9-58.8-35.2v0h-0.5c-28.9,0-43.1,16.3-59.6,35.3
				c-17.8,20.4-38,43.6-77.9,43.6c-39.9,0-60.1-23.2-77.9-43.6c-16.5-18.9-30.8-35.3-59.6-35.3c-28.9,0-43.1,16.3-59.6,35.3
				c-17.8,20.4-38,43.6-77.9,43.6c-39.9,0-60.1-23.2-77.9-43.6c-16.5-18.9-30.8-35.3-59.6-35.3c-28.9,0-43.1,16.3-59.6,35.3
				c-17.8,20.4-38,43.6-77.9,43.6c-1,0-1.9,0-2.8,0v0c-39.5-0.2-59.6-23.2-77.3-43.6c-16.5-18.9-30.8-35.3-59.6-35.3
				c-28.9,0-43.1,16.3-59.6,35.3c-17.8,20.4-38,43.6-77.9,43.6c-39.9,0-60.1-23.2-77.9-43.6c-16.5-18.9-30.8-35.3-59.7-35.3
				c-9.2,0-17,1.7-23.8,4.6v-25.7c7.1-2,14.9-3.1,23.8-3.1c39.9,0,60.1,23.2,77.9,43.6c16.5,18.9,30.8,35.3,59.6,35.3
				c28.9,0,43.1-16.3,59.6-35.3c17.8-20.4,38-43.6,77.9-43.6c1,0,2,0,3,0.1v0c39.4,0.3,59.4,23.3,77.1,43.6
				c16.5,18.9,30.8,35.3,59.6,35.3s43.1-16.3,59.6-35.3c17.8-20.4,38-43.6,77.9-43.6c39.9,0,60.1,23.2,77.9,43.6
				c16.5,18.9,30.8,35.3,59.6,35.3c28.9,0,43.1-16.3,59.6-35.3c17.8-20.4,38-43.6,77.9-43.6c39.9,0,60.1,23.2,77.9,43.6
				c16.5,18.9,30.8,35.3,59.7,35.3c28.9,0,43.1-16.3,59.6-35.3c17.8-20.4,38-43.6,77.9-43.6c39.9,0,60.1,23.2,77.9,43.6
				c16.4,18.8,30.6,35,59,35.3v0h0.3c28.9,0,43.1-16.3,59.6-35.3c17.8-20.4,38-43.6,77.9-43.6c39.9,0,60.1,23.2,77.9,43.6
				c16.5,18.9,30.8,35.3,59.6,35.3c28.9,0,43.1-16.3,59.6-35.3c17.8-20.4,38-43.6,77.9-43.6
				C1715.1,1375.8,1729,1380.3,1740.5,1387.2z"/>
		</g>
	</g>
	<g>
		<line class="st2" x1="886.7" y1="591.3" x2="596" y2="885.8"/>
		<line class="st2" x1="729.1" y1="595.2" x2="509.9" y2="817.4"/>
		<line class="st2" x1="874.8" y1="590.4" x2="1165.4" y2="884.9"/>
		<line class="st2" x1="1032.3" y1="594.3" x2="1251.5" y2="816.4"/>
		<line class="st2" x1="718.8" y1="599.4" x2="798.7" y2="680.4"/>
		<line class="st2" x1="1044.6" y1="598.5" x2="964.6" y2="679.5"/>
	</g>
	<g>
		<path class="st3" d="M880.4,343.8"/>
		<path class="st3" d="M880.4,619.1"/>
		<line class="st3" x1="717.4" y1="619.1" x2="784.5" y2="304.2"/>
		<path class="st3" d="M977.1,304.8"/>
		<path class="st3" d="M1044.1,619.1"/>
	</g>
	<g>
		<polygon class="st4" points="1426.7,1285.6 1318.7,1285.6 1320.8,1249.6 1424.5,1249.6 		"/>
		<polygon class="st4" points="1417.3,1341.9 1328.1,1341.9 1328.1,1282.4 1337,1133.8 1408.3,1133.8 1417.3,1282.4 		"/>
	</g>
	<g>
		<polygon class="st4" points="441.4,1285.1 333.4,1285.1 335.6,1249.1 439.3,1249.1 		"/>
		<polygon class="st4" points="432,1341.4 342.8,1341.4 342.8,1282 351.8,1133.4 423.1,1133.4 432,1282 		"/>
	</g>
	<line class="st5" x1="21" y1="1028.4" x2="359" y2="745.1"/>
	<line class="st5" x1="674.8" y1="1112.8" x2="421.5" y2="777.8"/>
	<line class="st5" x1="861.4" y1="1113.7" x2="421.5" y2="745.1"/>
	<g>
		<path class="st1" d="M458.2,1550.2c3.5,7.1,5.2,14.9,5.2,23.6c0,8.7-1.7,16.5-5.2,23.5c-3.5,7-7.9,12.6-13.4,16.7
			c-11.1,8.5-22.5,12.8-34.4,12.8h-25v22.6c0,3.1-0.1,5.4-0.3,6.9c-0.2,1.5-0.8,3.3-1.9,5.3c-1.9,3.6-7.1,5.4-15.6,5.4
			c-9.3,0-14.8-2.5-16.4-7.4c-0.8-2.3-1.2-5.7-1.2-10.4v-111c0-3.1,0.1-5.4,0.3-6.9c0.2-1.5,0.8-3.3,1.9-5.3
			c1.9-3.6,7.1-5.4,15.6-5.4h42.8c11.7,0,23.1,4.3,34.2,12.8C450.3,1537.6,454.8,1543.2,458.2,1550.2z M422.4,1587
			c3.9-2.9,5.8-7.3,5.8-13.2c0-5.9-1.9-10.3-5.8-13.3c-3.9-3-7.9-4.5-12-4.5h-25v35.4h25.2C414.6,1591.4,418.6,1590,422.4,1587z"/>
		<path class="st1" d="M588.8,1523.4c6.5,4.5,9.8,8.9,9.8,13.2c0,2.5-1.5,6.1-4.6,10.6l-43.2,64.6v38.2c0,3.1-0.1,5.4-0.3,6.9
			c-0.2,1.5-0.8,3.3-1.9,5.3c-1.1,2-2.9,3.4-5.4,4.2c-2.5,0.8-5.9,1.2-10.2,1.2c-4.3,0-7.7-0.4-10.2-1.2c-2.5-0.8-4.3-2.2-5.4-4.3
			c-1.1-2.1-1.7-3.9-1.9-5.4c-0.2-1.5-0.3-3.9-0.3-7.1v-37.8l-43.2-64.6c-3.1-4.5-4.6-8.1-4.6-10.6c0-4.3,2.9-8.4,8.8-12.3
			c5.9-3.9,10.1-5.9,12.6-5.9c2.5,0,4.5,0.5,6,1.6c2.3,1.5,4.7,4.2,7.2,8.2l31,49.6l31-49.6c2.5-4,4.7-6.6,6.6-7.9
			c1.9-1.3,4-1.9,6.5-1.9C579.6,1518.4,583.5,1520.1,588.8,1523.4z"/>
		<path class="st1" d="M708.1,1537.1c8.2,8.2,12.3,20.2,12.3,36.1c0,15.9-4.1,27.9-12.3,36.1c-8.2,8.2-19.8,12.3-34.7,12.3H646v45.6
			h-27.8v-142.4h55.2C688.4,1524.8,699.9,1528.9,708.1,1537.1z M692.6,1573.2c0-15.7-6.9-23.6-20.6-23.6h-26v47h26
			c6.7,0,11.8-1.8,15.3-5.4C690.9,1587.6,692.6,1581.6,692.6,1573.2z"/>
		<path class="st1" d="M837.6,1667.2h-50.4c-16,0-27.2-2.8-33.7-8.3c-6.5-5.5-9.7-15.3-9.7-29.3v-104.8h93.8v24.8h-66v33.4h46.2
			l-2,24.8h-44.2v19.8c0,5.6,1.3,9.5,3.8,11.6c2.5,2.1,7.1,3.2,13.8,3.2h48.4V1667.2z"/>
		<path class="st1" d="M972.6,1667.2h-32.2l-27.8-52.8h-20v52.8h-27.8v-111.8c0-10.7,2.5-18.4,7.4-23.3c4.9-4.9,13.2-7.3,24.8-7.3
			h23.6c14.1,0,25.4,4.3,33.7,12.9c8.3,8.6,12.5,19.5,12.5,32.7c0,9.6-2.5,17.9-7.5,24.9s-11.2,11.8-18.5,14.5L972.6,1667.2z
			 M933.3,1585.1c3.8-4.1,5.7-9.1,5.7-15.2c0-6.1-1.8-11-5.5-14.7c-3.7-3.7-8.6-5.6-14.7-5.6H905c-8.3,0-12.4,4.2-12.4,12.6v29h26.2
			C924.7,1591.2,929.5,1589.2,933.3,1585.1z"/>
		<path class="st1" d="M1089.4,1667.2H1039c-16,0-27.2-2.8-33.7-8.3c-6.5-5.5-9.7-15.3-9.7-29.3v-104.8h93.8v24.8h-66v33.4h46.2
			l-2,24.8h-44.2v19.8c0,5.6,1.3,9.5,3.8,11.6c2.5,2.1,7.1,3.2,13.8,3.2h48.4V1667.2z"/>
		<path class="st1" d="M1144.4,1667.2h-27.8v-142.4h27.8V1667.2z"/>
		<path class="st1" d="M1285.4,1667.2h-32.2l-27.8-52.8h-20v52.8h-27.8v-111.8c0-10.7,2.5-18.4,7.4-23.3c4.9-4.9,13.2-7.3,24.8-7.3
			h23.6c14.1,0,25.4,4.3,33.7,12.9c8.3,8.6,12.5,19.5,12.5,32.7c0,9.6-2.5,17.9-7.5,24.9s-11.2,11.8-18.5,14.5L1285.4,1667.2z
			 M1246.1,1585.1c3.8-4.1,5.7-9.1,5.7-15.2c0-6.1-1.8-11-5.5-14.7c-3.7-3.7-8.6-5.6-14.7-5.6h-13.8c-8.3,0-12.4,4.2-12.4,12.6v29
			h26.2C1237.5,1591.2,1242.3,1589.2,1246.1,1585.1z"/>
		<path class="st1" d="M1416.4,1667.2h-29l-8-24.6h-47.8l-7.8,24.6h-29l45.6-130.4c2-4.5,4.2-7.7,6.7-9.4c2.5-1.7,5.5-2.6,9.1-2.6
			c3.6,0,6.5,0.8,8.7,2.4c2.2,1.6,4.2,4.8,5.9,9.6L1416.4,1667.2z M1373,1619.2l-16.8-56.4l-17.6,56.4H1373z"/>
	</g>
	<g>
		<line class="st6" x1="725.8" y1="304.8" x2="30.3" y2="887.2"/>
		<path class="st6" d="M1884.8,1019.2"/>
		<path class="st6" d="M1060.7,257.1"/>
	</g>
	<line class="st3" x1="881.4" y1="603.2" x2="881.4" y2="327.9"/>
	<line class="st3" x1="1044.5" y1="603.2" x2="977.3" y2="288.3"/>
	<line class="st6" x1="1740.5" y1="878.4" x2="1044.1" y2="293"/>
	<circle class="st1" cx="880.7" cy="257.1" r="176.8"/>
	<g id="g6121_1_" transform="matrix(2.9298062,0,0,-2.9298062,-76.521264,3868.0458)">
		<path id="path5574-7_1_" class="st7" d="M326.1,1280.5c-3.9,0-7.7-0.4-10.9-0.9c-9.7-1.7-11.4-5.3-11.4-11.9v-8.7h22.9v-2.9h-22.9
			h-8.6c-6.7,0-12.5-4-14.3-11.6c-2.1-8.7-2.2-14.2,0-23.3c1.6-6.8,5.5-11.6,12.2-11.6h7.9v10.5c0,7.6,6.5,14.2,14.3,14.2H338
			c6.4,0,11.4,5.2,11.4,11.6v21.8c0,6.2-5.2,10.9-11.4,11.9C334,1280.2,330,1280.5,326.1,1280.5L326.1,1280.5z M313.7,1273.4
			c2.4,0,4.3-2,4.3-4.4c0-2.4-1.9-4.3-4.3-4.3c-2.4,0-4.3,1.9-4.3,4.3C309.4,1271.5,311.3,1273.4,313.7,1273.4z"/>
		<path id="path5576-0_1_" class="st7" d="M352.3,1256v-10.2c0-7.9-6.7-14.5-14.3-14.5h-22.9c-6.3,0-11.4-5.4-11.4-11.6v-21.8
			c0-6.2,5.4-9.9,11.4-11.6c7.2-2.1,14.2-2.5,22.9,0c5.8,1.7,11.4,5,11.4,11.6v8.7h-22.9v2.9h22.9h11.4c6.7,0,9.1,4.6,11.4,11.6
			c2.4,7.2,2.3,14.1,0,23.3c-1.6,6.6-4.8,11.6-11.4,11.6L352.3,1256z M339.4,1200.8c2.4,0,4.3-1.9,4.3-4.3c0-2.4-1.9-4.4-4.3-4.4
			c-2.4,0-4.3,2-4.3,4.4C335.1,1198.8,337.1,1200.8,339.4,1200.8z"/>
	</g>
	<g>
		<g>
			<g>
				<polygon class="st8" points="344.2,1350.9 433.4,1350.9 433.4,1291.4 424.4,1142.8 353.1,1142.8 344.2,1291.4 				"/>
				<polygon class="st9" points="334.3,1294.7 443.3,1294.7 441.1,1258.4 336.4,1258.4 				"/>
			</g>
			<g>
				<defs>
					<rect id="XMLID_3_" x="21" y="1112.8" width="1719.5" height="29.7"/>
				</defs>
				<use xlink:href="#XMLID_3_"  style="overflow:visible;fill:#FFFFFF;"/>
				<clipPath id="XMLID_4_">
					<use xlink:href="#XMLID_3_"  style="overflow:visible;"/>
				</clipPath>
				
					<use xlink:href="#XMLID_3_"  style="overflow:visible;fill:none;stroke:#FFFFFF;stroke-width:11.8901;stroke-linecap:round;stroke-linejoin:round;stroke-miterlimit:10;"/>
			</g>
			<g>
				<path class="st10" d="M-86.8,1112.8"/>
				<path class="st10" d="M359,744.2"/>
				<line class="st5" x1="105.7" y1="1112.8" x2="359" y2="777.8"/>
			</g>
			<g>
				<path class="st10" d="M838.5,1112.8"/>
				<path class="st10" d="M422.4,744.2"/>
				<path class="st5" d="M564.3,921.5"/>
				<path class="st10" d="M564.3,1112.8"/>
				<path class="st10" d="M469.7,811.4"/>
				<path class="st10" d="M469.7,1112.8"/>
				<path class="st10" d="M753.4,1072.8"/>
				<path class="st10" d="M753.4,1112.8"/>
				<path class="st5" d="M658.8,1007.9"/>
				<path class="st10" d="M658.8,1112.8"/>
			</g>
			<g>
				<rect x="359" y="681.8" class="st8" width="59.5" height="460.7"/>
				
					<rect x="353.1" y="681.1" transform="matrix(-1 -1.224647e-16 1.224647e-16 -1 777.538 1391.9565)" class="st5" width="71.3" height="29.7"/>
			</g>
		</g>
		<g>
			<g>
				<polygon class="st8" points="1417.3,1350.9 1328.1,1350.9 1328.1,1291.4 1337,1142.8 1408.3,1142.8 1417.3,1291.4 				"/>
				<polygon class="st11" points="1426.7,1294.6 1318.7,1294.6 1320.8,1258.6 1424.5,1258.6 				"/>
			</g>
			<g>
				<defs>
					<polygon id="XMLID_1_" points="1740.5,1112.8 1740.5,1142.5 12.4,1142.5 13.5,1112.8 					"/>
				</defs>
				<use xlink:href="#XMLID_1_"  style="overflow:visible;fill:#FFFFFF;"/>
				<clipPath id="XMLID_5_">
					<use xlink:href="#XMLID_1_"  style="overflow:visible;"/>
				</clipPath>
				
					<use xlink:href="#XMLID_1_"  style="overflow:visible;fill:none;stroke:#FFFFFF;stroke-width:11.8901;stroke-linecap:round;stroke-linejoin:round;stroke-miterlimit:10;"/>
			</g>
			<g>
				<path class="st10" d="M1848.3,1112.8"/>
				<path class="st10" d="M1402.4,744.2"/>
				<line class="st5" x1="1655.7" y1="1112.8" x2="1402.4" y2="777.8"/>
			</g>
			<g>
				<path class="st10" d="M922.9,1112.8"/>
				<path class="st10" d="M1339,744.2"/>
				<path class="st10" d="M1197.2,921.5"/>
				<path class="st10" d="M1197.2,1112.8"/>
				<path class="st10" d="M1291.8,811.4"/>
				<path class="st10" d="M1291.8,1112.8"/>
				<path class="st10" d="M1008,1072.8"/>
				<path class="st10" d="M1008,1112.8"/>
				<path class="st5" d="M1102.6,1007.9"/>
				<path class="st10" d="M1102.6,1112.8"/>
			</g>
			<g>
				<rect x="1342.9" y="681.8" class="st8" width="59.5" height="460.7"/>
				<rect x="1337" y="681.1" class="st5" width="71.3" height="29.7"/>
			</g>
		</g>
		<g>
			<line class="st12" x1="1232.3" y1="1112.3" x2="1340" y2="819.4"/>
			<line class="st12" x1="1086.6" y1="1112.8" x2="1340" y2="777.8"/>
			<line class="st12" x1="900" y1="1113.7" x2="1340" y2="745.1"/>
		</g>
		<g>
			<line class="st12" x1="251.3" y1="1110.3" x2="359" y2="817.4"/>
			<line class="st12" x1="105.7" y1="1110.8" x2="359" y2="775.8"/>
			<line class="st12" x1="21" y1="1028.4" x2="359" y2="743.1"/>
		</g>
		<g>
			<line class="st12" x1="526.4" y1="1112.3" x2="418.7" y2="819.4"/>
			<line class="st12" x1="672" y1="1112.8" x2="418.7" y2="777.8"/>
			<line class="st12" x1="858.6" y1="1113.7" x2="418.7" y2="745.1"/>
		</g>
		<g>
			<line class="st12" x1="1510.1" y1="1105.3" x2="1402.4" y2="812.4"/>
			<line class="st12" x1="1655.7" y1="1105.8" x2="1402.4" y2="770.8"/>
			<line class="st12" x1="1737.8" y1="1019.2" x2="1402.4" y2="738.1"/>
		</g>
	</g>
	<polygon class="st13" points="880,23.2 20.2,519.6 20.2,1512.4 880,2008.8 1739.8,1512.4 1739.8,519.6 	"/>
</g>
<g>
</g>
<g>
</g>
<g>
</g>
<g>
</g>
<g>
</g>
<g>
</g>
<g>
</g>
<g>
</g>
<g>
</g>
<g>
</g>
<g>
</g>
<g>
</g>
<g>
</g>
<g>
</g>
<g>
</g>
</svg>
