<?xml version="1.0" encoding="UTF-8" standalone="no"?>
<!-- Created with Inkscape (http://www.inkscape.org/) -->

<svg
   version="1.1"
   id="svg1"
   width="270.625"
   height="102.8047"
   viewBox="0 0 270.625 102.8047"
   sodipodi:docname="slogan-blanco.pdf"
   inkscape:export-filename="slogan-blanco.svg"
   inkscape:export-xdpi="96"
   inkscape:export-ydpi="96"
   xmlns:inkscape="http://www.inkscape.org/namespaces/inkscape"
   xmlns:sodipodi="http://sodipodi.sourceforge.net/DTD/sodipodi-0.dtd"
   xmlns="http://www.w3.org/2000/svg"
   xmlns:svg="http://www.w3.org/2000/svg">
  <defs
     id="defs1" />
  <sodipodi:namedview
     id="namedview1"
     pagecolor="#ffffff"
     bordercolor="#000000"
     borderopacity="0.25"
     inkscape:showpageshadow="2"
     inkscape:pageopacity="0.0"
     inkscape:pagecheckerboard="0"
     inkscape:deskcolor="#d1d1d1" />
  <g
     id="g1"
     inkscape:groupmode="layer"
     inkscape:label="1"
     transform="translate(-72.363281,-118.61189)">
    <g
       id="g2">
      <g
         id="g3" />
      <path
         id="path3"
         d="m 61.260883,-39.52956 c 6.713384,0 11.984438,-0.166086 15.821906,-0.507 3.846209,-0.349656 6.765832,-1.105786 8.758867,-2.27276 1.993036,-1.162604 3.234313,-2.788502 3.72383,-4.877693 0.489518,-2.097932 0.734277,-4.895175 0.734277,-8.391729 v -1.748277 c 0,-3.505295 -0.244759,-6.328762 -0.734277,-8.46166 -0.489517,-2.141639 -1.730794,-3.776278 -3.72383,-4.895175 -1.993035,-1.118897 -4.912658,-1.844432 -8.758867,-2.185346 -3.837468,-0.336544 -9.108522,-0.507001 -15.821906,-0.507001 H 21.155411 V -39.52956 Z M 21.155411,-0.00101958 H 10.071336 V -82.27493 h 53.392376 c 7.972143,0 14.410172,0.292836 19.31846,0.874138 4.917029,0.585673 8.758867,1.778872 11.521145,3.583968 2.771018,1.796355 4.641675,4.326985 5.611968,7.587522 0.979035,3.251795 1.468555,7.552556 1.468555,12.902283 v 1.748277 c 0,5.445883 -0.51574,9.799092 -1.538486,13.059628 -1.014,3.251795 -2.910881,5.80428 -5.6819,7.657453 -2.775389,1.844432 -6.617228,3.055114 -11.521144,3.636416 -4.908288,0.585673 -11.30261,0.874139 -19.178598,0.874139 H 21.155411 Z m 138.415449,0 H 148.48679 V -73.078994 h -40.56003 v -9.195936 h 92.20413 v 9.195936 H 159.57086 Z M 312.87289,-39.966629 c 0,5.734348 -0.19231,10.716937 -0.57693,14.947767 -0.38462,4.23083 -1.21505,7.832281 -2.48255,10.804351 -1.25876,2.96333 -3.00704,5.3672104 -5.24483,7.2203839 -2.2378,1.8444321 -5.2055,3.2780191 -8.89873,4.3007611 -3.69761,1.0140006 -8.19505,1.72205275 -13.4967,2.11541505 -5.30602,0.38462091 -11.65226,0.57693137 -19.03873,0.57693137 H 211.64766 V -82.27493 h 51.48676 c 10.98792,0 19.76427,0.415216 26.32905,1.241277 6.5604,0.830431 11.56485,2.631156 15.01769,5.402175 3.46159,2.762278 5.72124,6.774573 6.78332,12.028145 1.07082,5.257943 1.60841,12.355947 1.60841,21.294013 z m -50.61261,30.6298108 c 9.13474,0 16.33327,-0.3146898 21.59122,-0.9440698 5.25357,-0.629379 9.19593,-1.984294 11.81835,-4.073485 2.62241,-2.097932 4.27017,-5.214236 4.94762,-9.353281 0.6862,-4.134675 1.03149,-9.702937 1.03149,-16.696045 v -1.468552 c 0,-7.189789 -0.34529,-12.849835 -1.03149,-16.975769 -0.67745,-4.134675 -2.3558,-7.277202 -5.03503,-9.423212 -2.6705,-2.141639 -6.63472,-3.479071 -11.88829,-4.003554 -5.24483,-0.533225 -12.39091,-0.804208 -21.43387,-0.804208 h -39.52854 v 63.7421758 z m 0,0"
         style="fill:#ffffff;fill-opacity:1;fill-rule:nonzero;stroke:none"
         aria-label="PTD"
         transform="matrix(0.89373715,0,0,0.89373715,63.362154,192.14405)" />
    </g>
    <g
       id="g4">
      <g
         id="g5" />
      <path
         id="path5"
         d="m 5.4194169,-18.793347 c 1.490406,0 2.5961912,0.397733 3.3217261,1.188828 0.7211642,0.782354 1.0839316,1.936217 1.0839316,3.461588 v 2.430105 c 0,1.529743 -0.3627674,2.687976 -1.0839316,3.4790713 -0.7255349,0.7823539 -1.8313201,1.1713455 -3.3217261,1.1713455 H 4.0207954 V 6.2946791e-4 H 1.0662074 V -18.793347 Z m -1.3986215,2.674864 v 6.3637274 h 1.3986215 c 0.4632934,0 0.8216901,-0.1223794 1.0664489,-0.3671384 0.2535001,-0.2535 0.3846209,-0.721164 0.3846209,-1.398621 v -2.814726 c 0,-0.686199 -0.1311208,-1.153863 -0.3846209,-1.398622 -0.2447588,-0.2535 -0.6031555,-0.38462 -1.0664489,-0.38462 z m 19.5719596,5.24483 h 4.056003 v 2.6923466 h -4.056003 v 5.4895895 h 5.104969 V 6.2946791e-4 H 20.638167 V -18.793347 h 8.059557 v 2.674864 H 23.592755 Z M 46.023148,6.2946791e-4 C 45.988182,-0.12612061 45.953217,-0.2441293 45.918251,-0.34902591 c -0.03496,-0.10489661 -0.06993,-0.23601738 -0.104897,-0.40210369 -0.02622,-0.16171561 -0.04371,-0.3671381 -0.05245,-0.6118969 -0.01311,-0.2535002 -0.01748,-0.56819 -0.01748,-0.9440695 v -2.954588 c 0,-0.8741384 -0.152974,-1.490406 -0.454552,-1.8531735 -0.305948,-0.3583967 -0.795466,-0.5419658 -1.468552,-0.5419658 H 42.788835 V 6.2946791e-4 H 39.834247 V -18.793347 h 4.458107 c 1.547225,0 2.666122,0.362767 3.356691,1.083932 0.686199,0.712422 1.031484,1.791983 1.031484,3.234312 v 1.486035 c 0,1.923105 -0.646863,3.1949762 -1.940588,3.8112438 0.75613,0.3059484 1.267501,0.7998367 1.538484,1.4860353 0.279724,0.6905694 0.419586,1.5297423 0.419586,2.5175188 v 2.8846568 c 0,0.4676641 0.01748,0.8741385 0.05245,1.2237939 0.03496,0.34965534 0.12675,0.70805211 0.279724,1.06644886791 z M 42.788835,-16.118483 v 5.786796 h 1.153863 c 0.559449,0 0.996518,-0.144233 1.311208,-0.437069 0.31469,-0.288466 0.472035,-0.808578 0.472035,-1.555967 v -1.853173 c 0,-0.673087 -0.12238,-1.162604 -0.367139,-1.468553 -0.244758,-0.31469 -0.625009,-0.472034 -1.13638,-0.472034 z m 20.109555,5.24483 h 4.056003 v 2.6923466 H 62.89839 v 5.4895895 h 5.104969 V 6.2946791e-4 H 59.943802 V -18.793347 h 8.059557 v 2.674864 H 62.89839 Z m 16.241493,-7.919694 h 2.954588 V 6.2946791e-4 H 79.139883 Z M 99.747697,6.2946791e-4 C 99.712731,-0.12612061 99.677765,-0.2441293 99.6428,-0.34902591 99.60783,-0.45392252 99.57287,-0.58504329 99.537903,-0.7511296 c -0.02622,-0.16171561 -0.04371,-0.3671381 -0.05245,-0.6118969 -0.01311,-0.2535002 -0.01748,-0.56819 -0.01748,-0.9440695 v -2.954588 c 0,-0.8741384 -0.152974,-1.490406 -0.454552,-1.8531735 -0.305948,-0.3583967 -0.795466,-0.5419658 -1.468552,-0.5419658 H 96.513384 V 6.2946791e-4 H 93.558796 V -18.793347 h 4.458106 c 1.547225,0 2.666118,0.362767 3.356688,1.083932 0.6862,0.712422 1.03149,1.791983 1.03149,3.234312 v 1.486035 c 0,1.923105 -0.64687,3.1949762 -1.94059,3.8112438 0.75613,0.3059484 1.2675,0.7998367 1.53848,1.4860353 0.27973,0.6905694 0.41959,1.5297423 0.41959,2.5175188 v 2.8846568 c 0,0.4676641 0.0175,0.8741385 0.0524,1.2237939 0.035,0.34965534 0.12675,0.70805211 0.27972,1.06644886791 z M 96.513384,-16.118483 v 5.786796 h 1.153863 c 0.559449,0 0.996518,-0.144233 1.311208,-0.437069 0.31469,-0.288466 0.472034,-0.808578 0.472034,-1.555967 v -1.853173 c 0,-0.673087 -0.122379,-1.162604 -0.367138,-1.468553 -0.244758,-0.31469 -0.625009,-0.472034 -1.13638,-0.472034 z M 123.23143,6.2946791e-4 h -2.97207 L 119.75235,-3.4085105 h -3.63641 l -0.507,3.40913996791 h -2.70983 L 115.90615,-18.793347 h 4.31824 z M 116.50056,-5.9609947 h 2.84969 l -1.43359,-9.5106263 z m 17.93732,-3.4441055 c 0,-0.511371 0.0918,-0.9965178 0.27973,-1.4510698 0.19668,-0.454552 0.45892,-0.843544 0.78672,-1.171346 0.33654,-0.336543 0.73428,-0.603155 1.18883,-0.804207 0.46329,-0.196681 0.95281,-0.297207 1.46855,-0.297207 0.52448,0 1.014,0.100526 1.46855,0.297207 0.45456,0.201052 0.84355,0.467664 1.17135,0.804207 0.33654,0.327802 0.60315,0.716794 0.80421,1.171346 0.19668,0.454552 0.2972,0.9396988 0.2972,1.4510698 0,0.5244831 -0.10052,1.0140006 -0.2972,1.4685526 -0.20106,0.454552 -0.46767,0.852285 -0.80421,1.1888283 -0.3278,0.3278019 -0.71679,0.5900434 -1.17135,0.7867246 -0.45455,0.2010518 -0.94407,0.297207 -1.46855,0.297207 -0.51574,0 -1.00526,-0.096155 -1.46855,-0.297207 -0.45455,-0.1966812 -0.85229,-0.4589227 -1.18883,-0.7867246 -0.3278,-0.3365433 -0.59004,-0.7342763 -0.78672,-1.1888283 -0.18794,-0.454552 -0.27973,-0.9440695 -0.27973,-1.4685526 z m 18.5667,-9.3882468 h 9.14349 v 2.674864 h -3.09445 V 6.2946791e-4 h -2.95459 V -16.118483 h -3.09445 z m 22.68389,7.919694 h 4.05601 v 2.6923466 h -4.05601 v 5.4895895 h 5.10497 V 6.2946791e-4 h -8.05955 V -18.793347 h 8.05955 v 2.674864 h -5.10497 z m 24.80805,3.8636921 v 2.500036 c 0,1.5297423 -0.37588,2.7010878 -1.11889,3.51403654 -0.73428,0.80420737 -1.82695,1.20631105 -3.26928,1.20631105 -1.45981,0 -2.56123,-0.40210368 -3.30425,-1.20631105 -0.73427,-0.81294874 -1.10141,-1.98429424 -1.10141,-3.51403654 v -9.7728681 c 0,-1.525371 0.36714,-2.692346 1.10141,-3.496554 0.74302,-0.812948 1.84444,-1.223793 3.30425,-1.223793 1.44233,0 2.535,0.410845 3.26928,1.223793 0.74301,0.804208 1.11889,1.971183 1.11889,3.496554 v 1.818208 h -2.77976 v -2.010518 c 0,-0.673087 -0.13986,-1.153863 -0.41958,-1.433587 -0.27973,-0.279725 -0.65561,-0.419587 -1.1189,-0.419587 -0.46766,0 -0.83917,0.139862 -1.1189,0.419587 -0.27098,0.279724 -0.4021,0.7605 -0.4021,1.433587 v 10.1574885 c 0,0.6774573 0.13112,1.1494921 0.4021,1.4161043 0.27973,0.2709829 0.65124,0.4021037 1.1189,0.4021037 0.46329,0 0.83917,-0.1311208 1.1189,-0.4021037 0.27972,-0.2666122 0.41958,-0.738647 0.41958,-1.4161043 v -2.6923464 z m 14.06926,7.01059036791 h -2.95459 V -18.793347 h 2.95459 v 8.059556 h 3.35669 v -8.059556 h 3.00704 V 6.2946791e-4 h -3.00704 V -8.058927 h -3.35669 z M 232.91832,-9.4051002 c 0,-0.511371 0.0918,-0.9965178 0.27972,-1.4510698 0.19668,-0.454552 0.45892,-0.843544 0.78673,-1.171346 0.33654,-0.336543 0.73427,-0.603155 1.18883,-0.804207 0.46329,-0.196681 0.95281,-0.297207 1.46855,-0.297207 0.52448,0 1.014,0.100526 1.46855,0.297207 0.45455,0.201052 0.84354,0.467664 1.17135,0.804207 0.33654,0.327802 0.60315,0.716794 0.8042,1.171346 0.19668,0.454552 0.29721,0.9396988 0.29721,1.4510698 0,0.5244831 -0.10053,1.0140006 -0.29721,1.4685526 -0.20105,0.454552 -0.46766,0.852285 -0.8042,1.1888283 -0.32781,0.3278019 -0.7168,0.5900434 -1.17135,0.7867246 -0.45455,0.2010518 -0.94407,0.297207 -1.46855,0.297207 -0.51574,0 -1.00526,-0.096155 -1.46855,-0.297207 -0.45456,-0.1966812 -0.85229,-0.4589227 -1.18883,-0.7867246 -0.32781,-0.3365433 -0.59005,-0.7342763 -0.78673,-1.1888283 -0.18794,-0.454552 -0.27972,-0.9440695 -0.27972,-1.4685526 z m 19.42335,-9.3882468 h 4.68539 c 1.47729,0 2.5787,0.397733 3.30424,1.188828 0.73428,0.782354 1.10141,1.936217 1.10141,3.461588 v 9.4931439 c 0,1.5297423 -0.36713,2.6879758 -1.10141,3.4790711 -0.72554,0.78235386 -1.82695,1.17134546791 -3.30424,1.17134546791 h -4.68539 z m 2.95459,2.674864 v 13.4267661 h 1.67835 c 0.46329,0 0.83043,-0.1311208 1.10141,-0.4021037 0.26661,-0.2666123 0.40211,-0.738647 0.40211,-1.4161043 v -9.7728681 c 0,-0.686198 -0.1355,-1.162604 -0.40211,-1.433587 -0.27098,-0.266612 -0.63812,-0.402103 -1.10141,-0.402103 z M 282.17165,6.2946791e-4 h -2.97207 L 278.69258,-3.4085105 h -3.63642 l -0.507,3.40913996791 h -2.70983 L 274.84637,-18.793347 h 4.31824 z M 275.44078,-5.9609947 h 2.84969 l -1.43358,-9.5106263 z m 20.1926,-0.2622416 -3.74131,-12.5701107 h 3.09445 l 2.25528,8.566557 2.25527,-8.566557 h 2.81473 l -3.72383,12.5701107 V 6.2946791e-4 h -2.95459 z m 0,0"
         style="fill:#ffffff;fill-opacity:1;fill-rule:nonzero;stroke:none"
         aria-label="Pereira•Tech•Day"
         transform="matrix(0.89373715,0,0,0.89373715,71.531466,221.22851)" />
    </g>
  </g>
</svg>
