<?xml version="1.0" standalone="no"?>
<!DOCTYPE svg PUBLIC "-//W3C//DTD SVG 20010904//EN"
 "http://www.w3.org/TR/2001/REC-SVG-20010904/DTD/svg10.dtd">
<svg version="1.0" xmlns="http://www.w3.org/2000/svg"
 width="906.000000pt" height="146.000000pt" viewBox="0 0 906.000000 146.000000"
 preserveAspectRatio="xMidYMid meet">

<g transform="translate(0.000000,146.000000) scale(0.100000,-0.100000)"
fill="#000000" stroke="none">
<path d="M1285 1420 c-84 -55 -84 -181 0 -236 l25 -16 0 -201 0 -201 -90 -84
-90 -84 0 -287 0 -288 38 6 37 6 3 259 2 258 90 96 90 96 0 207 0 207 35 21
c53 31 77 76 72 135 -4 43 -10 55 -45 88 -36 33 -47 38 -89 38 -31 0 -59 -7
-78 -20z m121 -63 c20 -17 27 -33 27 -57 0 -38 -40 -80 -77 -80 -26 0 -62 30
-71 60 -9 29 11 75 38 88 34 17 54 14 83 -11z"/>
<path d="M475 1360 c-90 -59 -83 -196 12 -240 l33 -15 0 -210 0 -210 90 -90
90 -90 0 -236 0 -237 33 -5 c17 -2 35 -3 40 0 4 2 7 118 7 256 l0 252 -90 90
-90 90 0 195 0 196 31 23 c56 41 73 114 42 178 -33 69 -133 96 -198 53z m130
-65 c31 -30 32 -66 2 -101 -17 -20 -33 -27 -57 -27 -39 0 -80 40 -80 79 0 35
42 74 80 74 19 0 40 -9 55 -25z"/>
<path d="M105 1075 c-106 -37 -127 -181 -35 -243 31 -21 44 -23 102 -19 l66 4
86 -86 86 -86 0 -272 c0 -259 1 -273 19 -283 11 -5 29 -10 40 -10 21 0 21 4
21 298 l0 297 -104 104 c-101 101 -104 104 -99 141 7 53 -13 106 -50 134 -42
31 -83 37 -132 21z m104 -81 c62 -79 -43 -170 -114 -99 -49 49 -16 125 55 125
30 0 43 -6 59 -26z"/>
<path d="M890 1072 c-47 -25 -85 -98 -76 -147 8 -40 49 -93 83 -106 l23 -9 0
-400 0 -400 35 0 35 0 0 400 0 400 23 9 c33 13 75 66 82 104 9 44 -19 112 -57
138 -42 30 -104 35 -148 11z m120 -72 c45 -45 9 -130 -55 -130 -32 0 -66 27
-78 63 -8 20 16 72 35 80 31 13 79 6 98 -13z"/>
<path d="M2186 1074 c-3 -9 -6 -35 -6 -59 0 -78 -6 -75 162 -75 l150 0 29 -29
c23 -23 29 -38 29 -71 0 -33 -6 -48 -29 -71 l-29 -29 -144 0 c-99 0 -148 -4
-156 -12 -17 -17 -17 -399 0 -416 13 -13 86 -16 105 -4 9 5 13 50 15 142 l3
135 107 5 c95 5 111 9 154 36 92 56 138 158 117 258 -21 97 -87 170 -179 195
-21 6 -103 11 -180 11 -120 0 -143 -2 -148 -16z"/>
<path d="M2872 1078 c-13 -13 -16 -85 -6 -112 5 -14 40 -16 281 -16 l274 0 -3
68 -3 67 -265 3 c-198 2 -269 -1 -278 -10z"/>
<path d="M3622 1078 c-14 -14 -17 -185 -3 -206 5 -9 25 -12 62 -10 49 3 54 5
57 28 6 43 20 50 99 50 69 0 77 -2 104 -29 23 -23 29 -38 29 -71 0 -33 -6 -48
-29 -71 l-29 -29 -139 0 c-95 0 -143 -4 -151 -12 -9 -9 -12 -69 -12 -209 0
-224 -1 -222 77 -217 l48 3 2 120 c4 174 0 165 84 165 l70 0 44 -97 c90 -198
82 -188 148 -191 41 -2 59 1 62 11 3 7 -24 78 -60 156 -36 79 -65 148 -65 153
0 6 14 26 31 46 77 87 90 202 34 297 -29 50 -94 98 -155 115 -52 15 -293 13
-308 -2z"/>
<path d="M4327 1083 c-4 -3 -7 -35 -7 -70 l0 -63 274 0 c240 0 275 2 280 16
10 27 7 99 -6 112 -9 9 -83 12 -273 12 -144 0 -265 -3 -268 -7z"/>
<path d="M5097 1084 c-4 -4 -7 -179 -7 -390 0 -339 2 -383 16 -388 23 -9 107
-7 122 2 9 7 12 92 10 393 l-3 384 -65 3 c-36 2 -69 0 -73 -4z"/>
<path d="M5484 1077 c-2 -7 -3 -58 -2 -113 l3 -99 57 -3 c56 -3 58 -2 64 25 3
15 7 34 10 41 2 8 27 12 79 12 71 0 79 -2 106 -29 38 -39 40 -97 5 -138 -24
-28 -25 -28 -173 -33 l-148 -5 0 -215 0 -215 48 -3 c75 -5 77 0 77 154 l0 134
69 0 c43 0 72 -5 78 -12 5 -7 31 -62 57 -123 70 -159 66 -155 132 -155 36 0
56 4 60 13 3 8 -25 79 -61 159 -36 80 -65 150 -65 155 0 5 12 20 26 34 15 13
37 47 50 74 64 135 -8 298 -150 340 -66 20 -314 21 -322 2z"/>
<path d="M6231 1073 c-11 -22 -71 -244 -71 -265 0 -17 119 -53 132 -40 3 4 16
44 28 89 17 62 27 84 42 89 11 3 24 2 30 -4 5 -5 25 -65 44 -132 28 -98 32
-125 22 -131 -7 -5 -46 -9 -85 -9 l-73 0 0 -60 0 -60 99 0 c67 0 102 -4 108
-12 5 -7 22 -60 37 -118 15 -58 33 -108 39 -112 21 -13 127 -9 133 5 5 15
-193 746 -208 765 -7 8 -48 12 -139 12 -112 0 -129 -2 -138 -17z"/>
<path d="M7334 1076 c-3 -7 -4 -38 -2 -67 l3 -54 40 -3 c22 -2 45 -8 52 -14
10 -8 13 -83 13 -319 l0 -309 80 0 80 0 2 318 3 317 120 5 120 5 0 65 0 65
-253 3 c-208 2 -253 0 -258 -12z"/>
<path d="M8234 1076 c-3 -7 -4 -38 -2 -67 l3 -54 40 -3 c22 -2 45 -8 52 -14
10 -8 13 -83 13 -319 l0 -309 80 0 80 0 2 318 3 317 120 5 120 5 0 65 0 65
-253 3 c-208 2 -253 0 -258 -12z"/>
<path d="M1690 1012 c-19 -9 -45 -33 -58 -52 -20 -30 -23 -43 -18 -91 l5 -55
-99 -99 -100 -100 0 -267 c0 -290 -2 -280 54 -258 l26 10 0 242 0 243 86 86
86 87 62 -5 c49 -3 67 0 93 16 94 59 80 203 -24 247 -43 18 -71 18 -113 -4z
m112 -72 c25 -26 29 -36 24 -63 -15 -76 -107 -93 -142 -26 -18 36 -10 73 23
99 35 28 60 25 95 -10z"/>
<path d="M2866 845 c-3 -9 -6 -130 -6 -269 0 -183 3 -255 12 -264 19 -19 531
-17 547 2 7 8 11 37 9 68 l-3 53 -210 5 -210 5 0 80 0 80 163 3 163 2 -3 63
-3 62 -160 5 -160 5 -5 55 -5 55 -61 3 c-49 2 -63 0 -68 -13z"/>
<path d="M4322 583 l3 -278 264 -3 c191 -2 267 1 278 9 10 9 13 29 11 68 l-3
56 -210 5 -210 5 -3 74 c-2 53 1 77 10 82 7 5 82 9 166 9 l153 0 -3 63 -3 62
-160 5 -160 5 -3 58 -3 57 -65 0 -64 0 2 -277z"/>
<path d="M121 576 c-59 -33 -67 -102 -16 -153 l35 -35 0 -118 0 -119 30 -21
30 -21 0 139 0 140 35 35 c22 22 35 45 35 61 0 80 -80 130 -149 92z m69 -36
c54 -29 40 -100 -20 -100 -59 0 -74 69 -22 99 21 13 20 13 42 1z"/>
<path d="M1668 561 c-27 -24 -33 -36 -33 -71 0 -35 6 -47 33 -71 l32 -29 0
-105 c0 -112 4 -120 48 -89 20 14 22 23 22 106 0 87 1 91 30 118 42 39 42 99
1 141 -40 40 -89 40 -133 0z m88 -19 c6 -4 16 -17 23 -30 25 -48 -48 -99 -87
-60 -39 39 19 120 64 90z"/>
<path d="M8016 411 c-25 -28 -17 -79 15 -104 28 -20 57 -17 84 9 21 21 19 77
-3 97 -25 23 -75 21 -96 -2z"/>
<path d="M8917 412 c-20 -22 -22 -71 -4 -95 34 -45 117 -16 117 42 0 63 -73
97 -113 53z"/>
</g>
</svg>
